<svg width="264" height="264" viewBox="0 0 264 264" xmlns="http://www.w3.org/2000/svg"><path d="M95.131 262.938c-3.945 0-7.738-1.517-10.772-4.4-5.917-5.917-5.917-15.476 0-21.393l152.483-152.634c5.917-5.917 15.476-5.917 21.393 0s5.917 15.476 0 21.393l-152.331 152.634c-3.034 2.883-6.828 4.4-10.772 4.4zm76.317-.303c-2.883 0-5.766-.759-8.345-2.579l-.91-.607c-6.979-4.703-8.8-14.11-4.248-21.09 4.703-6.979 14.11-8.8 21.09-4.248l.91.607c6.979 4.703 8.8 14.11 4.248 21.09-3.034 4.4-7.89 6.828-12.745 6.828zm-123.2-28.676c-3.945 0-7.738-1.517-10.772-4.4-5.917-5.917-5.917-15.476 0-21.393l41.876-41.876c5.917-5.917 15.476-5.917 21.393 0s5.917 15.476 0 21.393l-41.876 41.876c-2.883 3.034-6.828 4.4-10.621 4.4zm178.428-26.703c-3.945 0-7.738-1.517-10.772-4.4-5.917-5.917-5.917-15.476 0-21.393l20.483-20.483c5.917-5.917 15.476-5.917 21.393 0s5.917 15.476 0 21.393l-20.483 20.483c-2.883 3.034-6.676 4.4-10.621 4.4zm-208.166-19.269c-3.945 0-7.738-1.517-10.772-4.4-5.917-5.917-5.917-15.476 0-21.393l.303-.303c5.917-5.917 15.476-5.917 21.393 0s5.917 15.476 0 21.393l-.303.303c-2.883 2.883-6.676 4.4-10.621 4.4zm112.579-36.869c-3.945 0-7.738-1.517-10.772-4.4-5.917-5.917-5.917-15.476 0-21.393l87.697-87.697c5.917-5.917 15.476-5.917 21.393 0s5.917 15.476 0 21.393l-87.545 87.697c-3.034 3.034-6.828 4.4-10.772 4.4zm-71.31-4.552c-3.945 0-7.738-1.517-10.772-4.4-5.917-5.917-5.917-15.476 0-21.393l112.883-112.883c5.917-5.917 15.476-5.917 21.393 0s5.917 15.476 0 21.393l-112.731 112.883c-3.034 3.034-6.828 4.4-10.772 4.4zm-43.09-32.772c-3.945 0-7.738-1.517-10.772-4.4-5.917-5.917-5.917-15.476 0-21.393l44.152-44c5.917-5.917 15.476-5.917 21.393 0s5.917 15.476 0 21.393l-44.152 44c-2.883 3.034-6.676 4.4-10.621 4.4zm81.931-81.931c-8.345 0-15.172-6.828-15.172-15.172v-1.517c0-8.345 6.828-15.172 15.172-15.172 8.345 0 15.172 6.828 15.172 15.172v1.517c0 8.345-6.828 15.172-15.172 15.172z" fill-rule="nonzero" fill="#7986CB"/></svg>